<svg xmlns="http://www.w3.org/2000/svg" viewBox="0 0 800 900" role="img" aria-label="Africa network map">
  <defs>
    <radialGradient id="g" cx="50%" cy="45%" r="60%">
      <stop offset="0%" stop-color="#55c5ae" stop-opacity="0.45"/>
      <stop offset="100%" stop-color="#0b1c1a" stop-opacity="0.1"/>
    </radialGradient>
  </defs>
  <rect width="800" height="900" fill="#071412"/>
  <ellipse cx="400" cy="420" rx="260" ry="320" fill="url(#g)"/>
  <path d="M360 120c40-20 90-10 120 20 40 40 30 90 10 130 25 20 55 55 50 100-5 50-40 80-70 110 10 40 5 90-30 120-40 35-95 40-140 20-35-15-55-50-60-90-30-15-55-50-45-95 10-40 45-60 70-80-15-40-5-90 25-120 25-25 45-40 70-55z" fill="#1a3d38" stroke="#55c5ae" stroke-width="3" opacity="0.9"/>
  <circle cx="400" cy="380" r="8" fill="#55c5ae"/>
  <circle cx="320" cy="280" r="5" fill="#e6a646"/>
  <circle cx="480" cy="300" r="5" fill="#e6a646"/>
  <circle cx="340" cy="520" r="5" fill="#59b7d3"/>
  <circle cx="460" cy="540" r="5" fill="#59b7d3"/>
  <line x1="400" y1="380" x2="320" y2="280" stroke="#55c5ae" stroke-width="1.5" opacity="0.6"/>
  <line x1="400" y1="380" x2="480" y2="300" stroke="#55c5ae" stroke-width="1.5" opacity="0.6"/>
  <line x1="400" y1="380" x2="340" y2="520" stroke="#55c5ae" stroke-width="1.5" opacity="0.6"/>
  <line x1="400" y1="380" x2="460" y2="540" stroke="#55c5ae" stroke-width="1.5" opacity="0.6"/>
</svg>
